<svg width="24" height="24" viewBox="0 0 24 24" fill="none" xmlns="http://www.w3.org/2000/svg">
<path fill-rule="evenodd" clip-rule="evenodd" d="M14 2C11.3133 2 8.93588 3.32445 7.48511 5.35608C8.28323 5.12427 9.1271 5 9.99999 5C10.2179 5 10.4339 5.00774 10.6479 5.02297C11.605 4.37708 12.7585 4 14 4C17.3137 4 20 6.68629 20 10C20 11.2415 19.6229 12.395 18.977 13.3521C18.9922 13.5661 19 13.7821 19 14C19 14.8729 18.8757 15.7168 18.6439 16.5149C20.6755 15.0642 22 12.6868 22 10C22 5.58172 18.4183 2 14 2ZM10 22C14.4183 22 18 18.4183 18 14C18 9.58172 14.4183 6 10 6C5.58172 6 2 9.58172 2 14C2 18.4183 5.58172 22 10 22ZM10 20C13.3137 20 16 17.3137 16 14C16 10.6863 13.3137 8 10 8C6.68629 8 4 10.6863 4 14C4 17.3137 6.68629 20 10 20ZM10.5 16C10.7743 16 11.0358 15.9448 11.2738 15.8448L12.742 17.3131C12.1025 17.7467 11.3308 18 10.5 18C8.63616 18 7.07006 16.7252 6.62602 15H5.5V13H6.62602C7.07006 11.2748 8.63616 10 10.5 10C11.3674 10 12.1704 10.2761 12.8258 10.7453L11.3716 12.1994C11.1082 12.0717 10.8125 12 10.5 12C9.75972 12 9.11337 12.4022 8.76756 13H10.5V15H8.76756C9.11337 15.5978 9.75972 16 10.5 16Z" fill="#95A9BB"/>
</svg>
