<svg width="24" height="24" viewBox="0 0 24 24" fill="none" xmlns="http://www.w3.org/2000/svg">
<path fill-rule="evenodd" clip-rule="evenodd" d="M11 3C11 2.44772 11.4477 2 12 2C12.5523 2 13 2.44772 13 3V5H17C19.7614 5 22 7.23858 22 10V19C22 20.1046 21.1046 21 20 21H15V20.9834C14.9418 20.9943 14.8815 21 14.8197 21C14.3467 21 13.943 20.658 13.8653 20.1914L13.6393 18.8356C13.5589 18.3534 13.1417 18 12.6529 18H11.3471C10.8583 18 10.4411 18.3534 10.3608 18.8356L10.1348 20.1915C10.057 20.658 9.65334 21 9.18034 21C9.11851 21 9.05825 20.9943 9 20.9834V21H4C2.89543 21 2 20.1046 2 19V10C2 7.23858 4.23858 5 7 5H11V3ZM8 9C7.44772 9 7 9.44772 7 10V11H6C5.44772 11 5 11.4477 5 12C5 12.5523 5.44772 13 6 13H7V14C7 14.5523 7.44772 15 8 15C8.55228 15 9 14.5523 9 14V13H10C10.5523 13 11 12.5523 11 12C11 11.4477 10.5523 11 10 11H9V10C9 9.44772 8.55228 9 8 9ZM16 10C16 10.5523 15.5523 11 15 11C14.4477 11 14 10.5523 14 10C14 9.44772 14.4477 9 15 9C15.5523 9 16 9.44772 16 10ZM17 14C17.5523 14 18 13.5523 18 13C18 12.4477 17.5523 12 17 12C16.4477 12 16 12.4477 16 13C16 13.5523 16.4477 14 17 14ZM19 19H15.6L15.1608 16.8039C15.0673 16.3365 14.6569 16 14.1802 16H9.81985C9.34317 16 8.93276 16.3365 8.83927 16.8039L8.40005 19H5C4.44772 19 4 18.5523 4 18V10C4 8.34315 5.34315 7 7 7H17C18.6569 7 20 8.34315 20 10V18C20 18.5523 19.5523 19 19 19Z" fill="#95A9BB"/>
</svg>
