<svg width="24" height="24" viewBox="0 0 24 24" fill="none" xmlns="http://www.w3.org/2000/svg">
<path fill-rule="evenodd" clip-rule="evenodd" d="M6.22633 14.5376C6.54045 14.865 7.16821 15.3104 7.60649 15.193L12.067 13.9978C12.5881 13.9633 13 13.5298 13 13V9C13 8.44772 12.5523 8 12 8C11.4477 8 11 8.44772 11 9V12.2132L7.63359 13.1152C6.62077 12.0409 6 10.593 6 9C6 5.68629 8.68629 3 12 3C15.3137 3 18 5.68629 18 9C18 10.5347 17.4238 11.9349 16.4759 12.9959C16.0804 13.4386 16.0289 14.1294 16.4487 14.5492C16.8068 14.9073 17.3834 14.9392 17.7365 14.5761C19.1373 13.1352 20 11.1684 20 9C20 4.58172 16.4183 1 12 1C7.58172 1 4 4.58172 4 9C4 11.1491 4.84742 13.1003 6.22633 14.5376ZM11 6C11 6.55228 11.4477 7 12 7C12.5523 7 13 6.55228 13 6C13 5.44772 12.5523 5 12 5C11.4477 5 11 5.44772 11 6ZM7.25882 18.0365C7.11588 17.503 7.43246 16.9547 7.96593 16.8117L14.7274 15C15.2609 14.8571 15.8092 15.1736 15.9522 15.7071C16.0951 16.2406 15.7785 16.7889 15.245 16.9319L8.48356 18.7436C7.9501 18.8865 7.40176 18.5699 7.25882 18.0365ZM9.96593 19.8117C9.43246 19.9547 9.11588 20.503 9.25882 21.0365C9.40176 21.5699 9.9501 21.8865 10.4836 21.7436L14.3473 20.7083C14.8807 20.5654 15.1973 20.017 15.0544 19.4836C14.9114 18.9501 14.3631 18.6335 13.8296 18.7765L9.96593 19.8117Z" fill="#95A9BB"/>
</svg>
