<svg width="24" height="24" viewBox="0 0 24 24" fill="none" xmlns="http://www.w3.org/2000/svg">
<path fill-rule="evenodd" clip-rule="evenodd" d="M2 2C1.44772 2 1 2.44771 1 3V20C1 20.5523 1.44772 21 2 21H17C17.5523 21 18 20.5523 18 20V3C18 2.44772 17.5523 2 17 2H2ZM16 4H3V19H16V4ZM19 4H20C20.5523 4 21 4.44772 21 5V18C21 18.5523 20.5523 19 20 19H19V4ZM5 7C5 6.44772 5.44772 6 6 6H8C8.55228 6 9 6.44772 9 7V9C9 9.55228 8.55228 10 8 10H6C5.44772 10 5 9.55228 5 9V7ZM12 8C11.4477 8 11 8.44772 11 9C11 9.55228 11.4477 10 12 10H13C13.5523 10 14 9.55228 14 9C14 8.44772 13.5523 8 13 8H12ZM5 13C5 12.4477 5.44772 12 6 12H13C13.5523 12 14 12.4477 14 13C14 13.5523 13.5523 14 13 14H6C5.44772 14 5 13.5523 5 13ZM5 16C5 15.4477 5.44772 15 6 15H13C13.5523 15 14 15.4477 14 16C14 16.5523 13.5523 17 13 17H6C5.44772 17 5 16.5523 5 16Z" fill="#95A9BB"/>
</svg>
