<svg width="24" height="24" viewBox="0 0 24 24" fill="none" xmlns="http://www.w3.org/2000/svg">
<path fill-rule="evenodd" clip-rule="evenodd" d="M4.96374 15.7912L8.97481 7.80324L10.4647 9.29311L7.59774 15.0026L8.50894 15.5287L10.0089 12.9306C10.2851 12.4523 10.8967 12.2884 11.375 12.5646C11.8533 12.8407 12.0171 13.4523 11.741 13.9306L10.241 16.5287L11.1522 17.0547L13.9591 12.7876L15.4032 14.2316L11.7862 19.7302L9.24099 18.2607L8.741 19.1267C8.46485 19.605 7.85326 19.7689 7.37497 19.4928C6.89668 19.2166 6.7328 18.605 7.00895 18.1267L7.50894 17.2607L4.96374 15.7912ZM15.9643 13.3785L14.5203 11.9345L10.9374 8.35164L9.44756 6.86177L5.29289 2.70711C4.90237 2.31658 4.90237 1.68342 5.29289 1.29289C5.68342 0.902369 6.31658 0.902369 6.70711 1.29289L10.3931 4.97884L11.8829 6.4687L15.6426 10.2284L17.0866 11.6724L21.2071 15.7929C21.5976 16.1834 21.5976 16.8166 21.2071 17.2071C20.8166 17.5976 20.1834 17.5976 19.7929 17.2071L15.9643 13.3785ZM17.1531 7.93219L16.2038 9.37533L17.6478 10.8194L18.824 9.03132C19.2531 8.37896 19.411 7.58499 19.264 6.81808L18.125 0.87323L12.4071 2.85921C11.7773 3.07795 11.2415 3.49899 10.8802 4.05176L12.3557 5.52724L12.4977 5.2444C12.6145 5.0118 12.8174 4.8339 13.0632 4.7485L16.596 3.52148L17.2998 7.19444C17.3487 7.45008 17.2961 7.71473 17.1531 7.93219ZM17.0693 16.4905C17.1024 15.9392 16.6823 15.4655 16.131 15.4324C15.5797 15.3993 15.106 15.8194 15.0729 16.3707L14.9571 18.3005L12.7068 21.2732C12.3735 21.7135 12.4602 22.3407 12.9006 22.674C13.3409 23.0074 13.9681 22.9206 14.3014 22.4803L16.9172 19.0248L17.0693 16.4905ZM6.51327 9.87961C6.20896 9.41872 5.58865 9.29178 5.12777 9.59609L3.00907 10.995L1.32439 14.988C1.1097 15.4969 1.34817 16.0834 1.85702 16.2981C2.36587 16.5128 2.95241 16.2743 3.1671 15.7655L4.61639 12.3303L6.22974 11.2651C6.69063 10.9608 6.81757 10.3405 6.51327 9.87961Z" fill="#95A9BB"/>
</svg>
