<svg viewBox="0 0 17 17" xmlns="http://www.w3.org/2000/svg" style="fill-rule:evenodd;clip-rule:evenodd;stroke-linejoin:round;stroke-miterlimit:1.41421;">
	<g>
		<path d="M12.15,10.692l-0.768,0l-0.272,-0.263c0.952,-1.108 1.526,-2.546 1.526,-4.111c0,-3.49 -2.829,-6.318 -6.318,-6.318c-3.49,0 -6.318,2.828 -6.318,6.318c0,3.489 2.828,6.318 6.318,6.318c1.565,0 3.003,-0.574 4.111,-1.526l0.263,0.272l0,0.768l4.86,4.85l1.448,-1.448l-4.85,-4.86Zm-5.832,0c-2.42,0 -4.374,-1.954 -4.374,-4.374c0,-2.42 1.954,-4.374 4.374,-4.374c2.42,0 4.374,1.954 4.374,4.374c0,2.42 -1.954,4.374 -4.374,4.374Z"/>
	</g>
</svg>