<svg width="24" height="24" viewBox="0 0 24 24" fill="none" xmlns="http://www.w3.org/2000/svg">
<path fill-rule="evenodd" clip-rule="evenodd" d="M10.5001 2.83332C10.5001 2.53 10.3624 2.24308 10.1258 2.05328C9.88919 1.86349 9.57924 1.79134 9.28314 1.85713L1.78308 3.52376C1.32554 3.62543 1 4.03125 1 4.49995V10.4999C1 11.0522 1.44771 11.4999 1.99999 11.4999L5 11.4999V20.1666C5 20.6528 5.19315 21.1192 5.53697 21.463C5.88079 21.8068 6.34711 22 6.83333 22H17.1667C17.6529 22 18.1192 21.8068 18.463 21.463C18.8068 21.1192 19 20.6528 19 20.1666V11.4999L22 11.4999C22.5523 11.4999 23 11.0522 23 10.4999V4.49995C23 4.03125 22.6745 3.62543 22.2169 3.52376L14.717 1.85713C14.4209 1.79134 14.1109 1.86349 13.8743 2.05328C13.6377 2.24308 13.5001 2.53 13.5001 2.83332C13.5001 3.23115 13.342 3.61268 13.0607 3.89398C12.7794 4.17529 12.3979 4.33332 12.0001 4.33332C11.6022 4.33332 11.2207 4.17529 10.9394 3.89398C10.6581 3.61268 10.5001 3.23115 10.5001 2.83332ZM3 9.49992L3 5.30213L8.71202 4.03283C8.88525 4.50766 9.16093 4.94394 9.52519 5.3082C10.1816 5.96457 11.0718 6.33332 12.0001 6.33332C12.9283 6.33332 13.8186 5.96457 14.4749 5.3082C14.8392 4.94394 15.1149 4.50766 15.2881 4.03283L21 5.30212V9.49992L18 9.49995C17.4477 9.49996 17 9.94767 17 10.5V20H7V10.5C7 9.94767 6.55229 9.49996 6.00001 9.49995L3 9.49992ZM13.3334 9.49996C13.3334 9.19263 13.1642 8.91025 12.8933 8.76523C12.6223 8.62022 12.2935 8.63611 12.0378 8.80659L10.5378 9.80659C10.1549 10.0619 10.0514 10.5793 10.3067 10.9622C10.562 11.3452 11.0794 11.4486 11.4623 11.1933L11.6667 11.0571V17C11.6667 17.4602 12.0398 17.8333 12.5 17.8333C12.9603 17.8333 13.3334 17.4602 13.3334 17V9.49996Z" fill="#95A9BB"/>
</svg>
