<svg width="24" height="24" viewBox="0 0 24 24" fill="none" xmlns="http://www.w3.org/2000/svg">
<path fill-rule="evenodd" clip-rule="evenodd" d="M7 3C7 2.44772 7.44772 2 8 2H15C15.5523 2 16 2.44772 16 3V6H19C20.1046 6 21 6.89543 21 8V18C21 19.1046 20.1046 20 19 20H4C2.89543 20 2 19.1046 2 18V8C2 6.89543 2.89543 6 4 6H7V3ZM9 6H14V4H9V6ZM4 9C4 8.44772 4.44772 8 5 8H7V10H9V8H14V10H16V8H18C18.5523 8 19 8.44772 19 9V17C19 17.5523 18.5523 18 18 18H16V12H14V18H9V12H7V18H5C4.44772 18 4 17.5523 4 17V9Z" fill="#95A9BB"/>
</svg>
