<svg width="24" height="24" viewBox="0 0 24 24" fill="none" xmlns="http://www.w3.org/2000/svg">
<path fill-rule="evenodd" clip-rule="evenodd" d="M12 22C17.5228 22 22 17.5228 22 12C22 6.47715 17.5228 2 12 2C6.47715 2 2 6.47715 2 12C2 17.5228 6.47715 22 12 22ZM13 19.9381C16.9463 19.446 20 16.0796 20 12C20 11.7598 19.9894 11.5221 19.9687 11.2874L15.9845 12.3549C15.8345 14.0602 14.6145 15.4584 13 15.874V19.9381ZM15.6551 10.3726L19.5438 9.33065C18.4448 6.22487 15.4822 4 12 4C8.51775 4 5.55515 6.22487 4.45617 9.33065L8.34491 10.3726C8.96833 8.97454 10.3704 8 12 8C13.6296 8 15.0317 8.97454 15.6551 10.3726ZM8.01553 12.3549L4.03131 11.2874C4.01058 11.5221 4 11.7598 4 12C4 16.0796 7.05369 19.446 11 19.9381V15.874C9.38549 15.4584 8.16547 14.0602 8.01553 12.3549ZM12 14C13.1046 14 14 13.1046 14 12C14 10.8954 13.1046 10 12 10C10.8954 10 10 10.8954 10 12C10 13.1046 10.8954 14 12 14Z" fill="#95A9BB"/>
</svg>
