<svg viewBox="0 0 22 20" xmlns="http://www.w3.org/2000/svg">
    <path d="M19.568,9.151c0,-1.069 -0.041,-1.99 -0.122,-2.766c-0.081,-0.776 -0.233,-1.384 -0.456,-1.822c-0.284,-0.859 -0.921,-1.404 -1.914,-1.636c-0.79,-0.21 -2.318,-0.313 -4.586,-0.313l-2.916,0c-2.268,0 -3.806,0.104 -4.616,0.313c-0.972,0.231 -1.63,0.776 -1.974,1.636c-0.385,0.922 -0.577,2.45 -0.577,4.588l0,1.729c0,2.139 0.192,3.667 0.577,4.589c0.364,0.839 1.033,1.373 2.004,1.604c0.79,0.21 2.318,0.313 4.586,0.313l2.916,0c2.248,0 3.766,-0.104 4.556,-0.313c0.992,-0.23 1.64,-0.765 1.944,-1.604c0.223,-0.44 0.375,-1.048 0.456,-1.822c0.081,-0.775 0.122,-1.697 0.122,-2.767l0,-1.729Zm2.25,5.158c-0.122,0.985 -0.324,1.803 -0.607,2.453c-0.304,0.628 -0.709,1.168 -1.216,1.618c-0.506,0.451 -1.104,0.781 -1.792,0.991l0,0.031c-0.588,0.188 -1.348,0.336 -2.279,0.44c-0.932,0.105 -2.066,0.157 -3.403,0.157l-2.947,0c-3.08,0 -5.217,-0.294 -6.412,-0.88c-1.337,-0.608 -2.239,-1.73 -2.705,-3.365c-0.162,-0.609 -0.278,-1.457 -0.35,-2.548c-0.071,-1.09 -0.106,-2.442 -0.106,-4.056c0,-1.32 0.056,-2.474 0.167,-3.459c0.111,-0.986 0.309,-1.793 0.592,-2.422c0.304,-0.629 0.704,-1.169 1.2,-1.619c0.497,-0.451 1.109,-0.803 1.838,-1.054l0.031,0c1.134,-0.398 3.049,-0.598 5.743,-0.598l2.947,0c2.958,0 5.084,0.305 6.381,0.913c0.648,0.292 1.2,0.723 1.656,1.289c0.456,0.565 0.795,1.268 1.018,2.106c0.122,0.587 0.223,1.426 0.304,2.515c0.081,1.091 0.121,2.442 0.121,4.057c0.001,1.303 -0.06,2.444 -0.181,3.431" style="fill:#367da9;fill-rule:nonzero;" />
    <path d="M7.065,15.027l1.289,-0.623l-1.289,0.623l0.633,1.268l1.289,-0.623l-0.633,-1.268l-1.289,0.623Zm-0.632,-1.269l1.289,-0.623l-1.289,0.623l0.633,1.269l1.289,-0.623l-0.633,-1.269l-1.289,0.623Zm-0.634,-1.268l1.289,-0.621l-1.289,0.621l0.633,1.269l1.289,-0.624l-0.633,-1.266l-1.289,0.621Zm-0.632,-1.269l1.289,-0.621l-1.289,0.621l0.633,1.269l1.289,-0.621l-0.633,-1.269l-1.289,0.621Zm-0.633,-1.266l1.289,-0.622l-1.289,0.622l0.633,1.268l1.289,-0.622l-0.633,-1.268l-1.289,0.622Zm-0.634,-1.268l1.289,-0.624l-1.289,0.624l0.633,1.268l1.289,-0.622l-0.633,-1.269l-1.289,0.623Zm6.399,3.202l1.289,-0.623l-1.289,0.623l0.633,1.269l1.289,-0.624l-0.633,-1.268l-1.289,0.623Zm-0.633,-1.266l1.289,-0.623l-1.289,0.623l0.633,1.268l1.289,-0.623l-0.633,-1.268l-1.289,0.623Zm-0.633,-1.268l1.289,-0.624l-1.289,0.624l0.633,1.268l1.289,-0.623l-0.633,-1.269l-1.289,0.624Zm-0.633,-1.267l1.289,-0.623l-1.289,0.623l0.633,1.268l1.289,-0.623l-0.633,-1.268l-1.289,0.623Zm-0.633,-1.268l1.289,-0.623l-1.289,0.623l0.633,1.268l1.289,-0.623l-0.633,-1.268l-1.289,0.623Zm6.398,3.203l1.289,-0.624l-1.289,0.624l0.633,1.268l1.289,-0.623l-0.633,-1.269l-1.289,0.624Zm-0.633,-1.269l1.289,-0.624l-1.289,0.624l0.633,1.269l1.289,-0.624l-0.633,-1.269l-1.289,0.624Zm-0.633,-1.267l1.289,-0.623l-1.289,0.623l0.633,1.268l1.289,-0.623l-0.633,-1.268l-1.289,0.623Zm-0.633,-1.269l1.289,-0.623l-1.289,0.623l0.633,1.269l1.289,-0.623l-0.633,-1.269l-1.289,0.623Zm-0.633,-1.267l1.289,-0.624l-1.289,0.624l0.633,1.268l1.289,-0.623l-0.633,-1.269l-1.289,0.624Zm-6.444,3.113l1.289,-0.623l-1.289,0.623l0.633,1.269l1.289,-0.623l-0.633,-1.269l-1.289,0.623Zm0.633,1.269l1.289,-0.623l-1.289,0.623l0.633,1.268l1.289,-0.622l-0.633,-1.269l-1.289,0.623Zm0.633,1.267l1.289,-0.622l-1.289,0.622l0.633,1.269l1.289,-0.624l-0.633,-1.268l-1.289,0.623Zm0.633,1.269l1.289,-0.624l-1.289,0.624l0.633,1.267l1.289,-0.622l-0.633,-1.269l-1.289,0.624Zm0.633,1.266l1.289,-0.622l-1.289,0.622l0.633,1.269l1.289,-0.624l-0.633,-1.268l-1.289,0.623Zm0.633,1.269l1.289,-0.624l-1.289,0.624l0.633,1.268l1.289,-0.624l-0.633,-1.268l-1.289,0.624Zm1.289,-0.623l1.289,-0.623l-1.289,0.623l0.633,1.268l1.289,-0.622l-0.633,-1.269l-1.289,0.623Zm1.289,-0.623l1.289,-0.624l-1.289,0.624l0.633,1.269l1.289,-0.624l-0.633,-1.269l-1.289,0.624Zm-1.876,-6.961l1.289,-0.624l-1.289,0.624l0.633,1.268l1.289,-0.624l-0.633,-1.268l-1.289,0.624Zm0.633,1.267l1.289,-0.623l-1.289,0.623l0.633,1.268l1.289,-0.623l-0.633,-1.268l-1.289,0.623Zm0.632,1.268l1.289,-0.623l-1.289,0.623l0.633,1.268l1.289,-0.623l-0.633,-1.268l-1.289,0.623Zm0.634,1.268l1.289,-0.624l-1.289,0.624l0.633,1.268l1.289,-0.622l-0.633,-1.269l-1.289,0.623Zm0.632,1.267l1.289,-0.622l-1.289,0.622l0.633,1.268l1.289,-0.622l-0.633,-1.268l-1.289,0.622Zm0.633,1.268l1.289,-0.622l-1.289,0.622l0.633,1.269l1.289,-0.622l-0.633,-1.269l-1.289,0.622Zm1.289,-0.622l1.289,-0.622l-1.289,0.622l0.633,1.269l1.289,-0.624l-0.633,-1.268l-1.289,0.623Zm1.289,-0.622l1.289,-0.623l-1.289,0.623l0.633,1.268l1.289,-0.623l-0.633,-1.268l-1.289,0.623Zm1.288,-0.623l1.289,-0.624l-1.289,0.624l0.633,1.268l1.289,-0.624l-0.633,-1.268l-1.289,0.624Zm-0.632,-1.269l1.289,-0.623l-1.289,0.623l0.633,1.269l1.289,-0.624l-0.633,-1.268l-1.289,0.623Zm-0.633,-1.269l1.289,-0.621l-1.289,0.621l0.633,1.269l1.289,-0.623l-0.633,-1.268l-1.289,0.622Zm-0.633,-1.266l1.289,-0.622l-1.289,0.622l0.633,1.268l1.289,-0.622l-0.633,-1.268l-1.289,0.622Zm-0.633,-1.269l1.289,-0.621l-1.289,0.621l0.633,1.269l1.289,-0.622l-0.633,-1.268l-1.289,0.621Zm-0.633,-1.268l1.289,-0.621l-1.289,0.621l0.633,1.269l1.289,-0.621l-0.633,-1.269l-1.289,0.621Z" style="fill:#f58237;fill-rule:nonzero;" />
</svg>